<?xml version="1.0" encoding="UTF-8"?>
<svg id="Capa_2" data-name="Capa 2" xmlns="http://www.w3.org/2000/svg" viewBox="0 0 70.51 75.22">
  <defs>
    <style>
      .cls-1 {
        fill: #fff;
      }
    </style>
  </defs>
  <g id="Capa_1-2" data-name="Capa 1">
    <g>
      <path class="cls-1" d="M50.07,43.84l-24.45-23.4-6,5.74c-.69.69-.69,1.86-.07,2.49l24.52,23.47,6.07-5.81c.62-.62.62-1.79-.07-2.49Z"/>
      <path class="cls-1" d="M11.87,36.5h.04c-5.01-4.97-5.01-13.09.07-18.17L31.13,0c-2.54.47-5.02,1.35-7.32,2.68L7.18,12.25C2.76,14.8.04,19.51.03,24.6L0,48.81c0,5.1,2.71,9.81,7.12,12.37l17.13,9.92,11.9-11.39-24.29-23.21Z"/>
      <path class="cls-1" d="M63.38,12.32L46.78,2.71c-.56-.32-1.13-.61-1.7-.88l-11.53,11.03,24.17,23.12c5.08,5.08,5.08,13.2.07,18.17h.04l-22.04,21.06c2.27-.09,4.52-.71,6.56-1.89l20.98-12.08c4.42-2.54,7.14-7.25,7.15-12.35l.03-24.21c0-5.1-2.71-9.81-7.12-12.37Z"/>
    </g>
  </g>
</svg>